<?xml version="1.0" encoding="utf-8"?>
<!-- Generator: Adobe Illustrator 24.0.2, SVG Export Plug-In . SVG Version: 6.00 Build 0)  -->
<svg version="1.1" id="tiips" xmlns="http://www.w3.org/2000/svg" xmlns:xlink="http://www.w3.org/1999/xlink" x="0px" y="0px"
	 viewBox="0 0 500 500" style="enable-background:new 0 0 500 500;" xml:space="preserve">
<style type="text/css">
	.st0{fill:#2FC29D;}
</style>
<g>
	<path class="st0" d="M67.26,279.21v-76.68H52.83c-3.15,0-6.03-2.89-6.03-6.03c0-3.15,2.88-5.77,6.03-5.77h14.42v-48.17
		c0-3.67,2.62-6.56,6.3-6.56c3.67,0,6.56,2.88,6.56,6.56v48.17h41.97c3.14,0,6.03,2.89,6.03,6.03c0,3.15-2.89,5.77-6.03,5.77H80.11
		v75.36c0,19.15,11.28,25.97,26.75,25.97c9.18,0,13.38-2.63,15.21-2.63c2.89,0,5.77,2.63,5.77,5.77c0,2.62-1.58,4.46-4.2,5.51
		c-5.25,1.84-11.28,3.41-18.89,3.41C84.04,315.93,67.26,304.65,67.26,279.21z"/>
	<path class="st0" d="M67.26,279.21h0.5v-77.18H52.83c-1.42,0-2.81-0.66-3.84-1.69c-1.03-1.03-1.69-2.43-1.69-3.84
		c0-1.42,0.65-2.73,1.68-3.7c1.03-0.97,2.42-1.57,3.85-1.57h14.92v-48.67c0-1.72,0.61-3.23,1.63-4.31c1.02-1.08,2.46-1.74,4.16-1.74
		c3.4,0,6.05,2.65,6.06,6.06v48.67h42.47c1.42,0,2.81,0.66,3.84,1.69c1.03,1.03,1.69,2.43,1.69,3.84c0,1.42-0.65,2.73-1.68,3.7
		c-1.03,0.97-2.42,1.57-3.85,1.57H79.61v75.86c-0.01,9.67,2.86,16.34,7.75,20.54c4.88,4.21,11.7,5.92,19.51,5.92
		c4.64,0,8.03-0.66,10.49-1.33c1.23-0.33,2.22-0.66,3.01-0.91c0.78-0.25,1.37-0.39,1.71-0.39c1.29,0,2.62,0.6,3.62,1.57
		c1,0.97,1.65,2.29,1.65,3.71c0,1.21-0.36,2.2-1.01,3.03c-0.65,0.83-1.62,1.51-2.87,2.01l0.19,0.46l-0.17-0.47
		c-5.22,1.83-11.18,3.38-18.72,3.38c-10.27,0-19.52-2.8-26.19-8.69c-6.67-5.9-10.81-14.91-10.81-27.53H67.26h-0.5
		c0,12.83,4.25,22.18,11.15,28.28c6.9,6.1,16.41,8.95,26.86,8.95c7.67,0,13.78-1.59,19.05-3.44l0.01,0l0.01,0
		c1.37-0.55,2.5-1.31,3.29-2.32c0.79-1,1.22-2.24,1.22-3.65c0-1.73-0.79-3.3-1.95-4.43c-1.17-1.13-2.72-1.85-4.32-1.85
		c-0.58,0-1.2,0.19-2.01,0.43c-2.4,0.74-6.38,2.19-13.2,2.19c-7.67,0-14.23-1.69-18.85-5.68c-4.62-3.99-7.4-10.3-7.4-19.79v-74.86
		h41.47c1.71,0,3.33-0.71,4.54-1.84c1.2-1.13,1.99-2.7,1.99-4.43c0-1.73-0.79-3.35-1.98-4.55c-1.2-1.2-2.82-1.98-4.55-1.98H80.61
		v-47.67c0-1.97-0.78-3.74-2.05-5.01c-1.27-1.27-3.04-2.05-5.01-2.05c-1.97,0-3.68,0.78-4.89,2.06c-1.21,1.28-1.91,3.04-1.91,5
		v47.67l-13.92,0c-1.71,0-3.34,0.71-4.54,1.84c-1.2,1.13-1.99,2.7-1.99,4.43c0,1.73,0.79,3.35,1.98,4.55
		c1.2,1.2,2.82,1.98,4.55,1.98h13.92l0,76.18H67.26z"/>
	<path class="st0" d="M152.2,196.39c0-3.43,2.62-6.13,6.3-6.13c3.67,0,6.56,2.45,6.56,6.13v114.69c0,3.68-2.62,6.12-6.29,6.12
		c-3.67,0-6.56-2.45-6.56-6.12V196.39z"/>
	<path class="st0" d="M152.2,196.39h0.5c0-1.59,0.6-2.98,1.62-3.99c1.02-1.01,2.46-1.63,4.17-1.63c1.72,0,3.24,0.57,4.32,1.55
		c1.08,0.98,1.73,2.36,1.74,4.07v114.69c0,1.72-0.61,3.11-1.62,4.08c-1.01,0.97-2.45,1.54-4.18,1.54c-1.73,0-3.24-0.57-4.32-1.55
		c-1.08-0.98-1.74-2.36-1.74-4.07V196.39H152.2h-0.5v114.69c0,1.97,0.78,3.65,2.07,4.81c1.28,1.16,3.05,1.81,4.99,1.81
		c1.95,0,3.65-0.65,4.87-1.82c1.22-1.17,1.93-2.85,1.92-4.8V196.39c0-1.97-0.78-3.65-2.07-4.81c-1.28-1.16-3.04-1.81-4.99-1.81
		c-1.96,0-3.67,0.72-4.88,1.92c-1.21,1.2-1.92,2.86-1.92,4.7H152.2z"/>
	<path class="st0" d="M151.2,146.84c0,3.7,3,6.7,6.7,6.7s6.7-3,6.7-6.7s-3-6.7-6.7-6.7S151.2,143.13,151.2,146.84z"/>
	<path class="st0" d="M151.2,146.84h-0.5c0,3.98,3.22,7.2,7.2,7.2c3.98,0,7.2-3.22,7.2-7.2c0-3.98-3.22-7.2-7.2-7.2
		c-3.98,0-7.2,3.22-7.2,7.2H151.2h0.5c0-1.71,0.69-3.26,1.82-4.39c1.12-1.12,2.67-1.82,4.39-1.82c1.71,0,3.26,0.69,4.39,1.82
		c1.12,1.12,1.82,2.67,1.82,4.39c0,1.71-0.69,3.26-1.82,4.39c-1.12,1.12-2.67,1.82-4.39,1.82c-1.71,0-3.26-0.69-4.39-1.82
		c-1.12-1.12-1.82-2.67-1.82-4.39H151.2z"/>
	<path class="st0" d="M195.92,196.39c0-3.43,2.63-6.13,6.3-6.13s6.56,2.45,6.56,6.13v114.69c0,3.68-2.62,6.12-6.29,6.12
		s-6.56-2.45-6.56-6.12V196.39z"/>
	<path class="st0" d="M195.92,196.39h0.5c0-1.59,0.6-2.98,1.62-3.99c1.02-1.01,2.46-1.63,4.17-1.63c1.72,0,3.24,0.57,4.32,1.55
		c1.08,0.98,1.73,2.36,1.74,4.07v114.69c0,1.72-0.61,3.11-1.62,4.08c-1.01,0.97-2.45,1.54-4.18,1.54c-1.73,0-3.24-0.57-4.32-1.55
		c-1.08-0.98-1.74-2.36-1.74-4.07V196.39H195.92h-0.5v114.69c0,1.97,0.78,3.65,2.07,4.81c1.28,1.16,3.05,1.81,4.99,1.81
		c1.95,0,3.65-0.65,4.87-1.82c1.22-1.17,1.93-2.85,1.92-4.8V196.39c0-1.97-0.78-3.65-2.07-4.81c-1.28-1.16-3.04-1.81-4.99-1.81
		c-1.96,0-3.67,0.72-4.88,1.92c-1.21,1.2-1.92,2.86-1.92,4.7H195.92z"/>
	<path class="st0" d="M194.18,146.84c0,3.7,3,6.7,6.7,6.7s6.7-3,6.7-6.7s-3-6.7-6.7-6.7S194.18,143.13,194.18,146.84z"/>
	<path class="st0" d="M194.18,146.84h-0.5c0,3.98,3.22,7.2,7.2,7.2c3.98,0,7.2-3.22,7.2-7.2c0-3.98-3.22-7.2-7.2-7.2
		c-3.98,0-7.2,3.22-7.2,7.2H194.18h0.5c0-1.71,0.69-3.26,1.82-4.39c1.12-1.12,2.67-1.82,4.39-1.82c1.71,0,3.26,0.69,4.39,1.82
		c1.12,1.12,1.82,2.67,1.82,4.39c0,1.71-0.69,3.26-1.82,4.39c-1.12,1.12-2.67,1.82-4.39,1.82c-1.71,0-3.26-0.69-4.39-1.82
		c-1.12-1.12-1.82-2.67-1.82-4.39H194.18z"/>
	<path class="st0" d="M295.23,190.27c-18,0-33.99,9.54-44.33,24.34v-16.2c0-4.89-2.88-8.14-6.56-8.14s-6.3,3.58-6.3,8.14v152.45
		c0,4.89,2.89,8.14,6.56,8.14c3.67,0,6.29-3.26,6.29-8.14v-57.44c10.34,14.81,26.33,24.34,44.33,24.34
		c31.18,0,56.46-28.54,56.46-63.75S326.41,190.27,295.23,190.27z M294.86,305.42c-23.58,0-42.78-21.62-43.96-48.78v-5.26
		c1.18-27.16,20.38-48.78,43.96-48.78c24.34,0,44.08,23.02,44.08,51.41C338.94,282.41,319.21,305.42,294.86,305.42z"/>
	<path class="st0" d="M295.23,190.27v-0.5c-18.18,0-34.32,9.64-44.74,24.56l0.41,0.29h0.5v-16.2c0-2.54-0.75-4.69-2.02-6.22
		c-1.26-1.53-3.05-2.42-5.04-2.42c-2,0-3.74,0.99-4.92,2.56c-1.19,1.57-1.87,3.71-1.87,6.08v152.45c0,2.54,0.75,4.69,2.02,6.22
		c1.26,1.53,3.06,2.42,5.04,2.42c1.99,0,3.72-0.9,4.92-2.43c1.2-1.53,1.88-3.68,1.88-6.21v-57.44h-0.5l-0.41,0.29
		c10.42,14.92,26.56,24.56,44.74,24.56c15.75,0,30-7.21,40.3-18.84c10.3-11.63,16.66-27.68,16.66-45.41
		c0-17.72-6.36-33.78-16.66-45.41c-10.3-11.63-24.55-18.84-40.3-18.84V190.27v0.5c15.44,0,29.41,7.06,39.55,18.5
		c10.13,11.44,16.41,27.26,16.41,44.74c0,17.48-6.28,33.3-16.41,44.74c-10.14,11.44-24.11,18.5-39.55,18.5
		c-17.81,0-33.65-9.44-43.92-24.13l-0.91-1.3v59.03c0,2.35-0.63,4.28-1.66,5.59c-1.03,1.32-2.44,2.04-4.13,2.05
		c-1.69,0-3.17-0.74-4.27-2.06c-1.1-1.32-1.79-3.24-1.79-5.58V198.41c0-2.18,0.63-4.12,1.67-5.48c1.04-1.36,2.46-2.16,4.13-2.16
		c1.69,0,3.17,0.74,4.27,2.06c1.09,1.32,1.79,3.24,1.79,5.58v17.79l0.91-1.3c10.26-14.69,26.1-24.13,43.92-24.13V190.27z
		 M294.86,305.42v-0.5c-11.63,0-22.19-5.33-30.01-14.04c-7.81-8.71-12.87-20.79-13.45-34.26l-0.5,0.02h0.5v-5.26h-0.5l0.5,0.02
		c0.59-13.47,5.64-25.56,13.45-34.26c7.82-8.71,18.37-14.04,30.01-14.04c12.01,0,22.89,5.67,30.79,14.88
		c7.9,9.21,12.79,21.95,12.79,36.03c0,14.08-4.89,26.82-12.79,36.03c-7.9,9.21-18.78,14.88-30.79,14.88V305.42v0.5
		c12.33,0,23.49-5.83,31.55-15.23c8.06-9.4,13.03-22.36,13.03-36.68c0-14.31-4.97-27.28-13.03-36.68
		c-8.06-9.4-19.21-15.23-31.55-15.23c-11.95,0-22.78,5.48-30.75,14.37c-7.98,8.89-13.11,21.2-13.71,34.89l0,0.01v5.28l0,0.01
		c0.6,13.69,5.73,26,13.71,34.89c7.97,8.89,18.81,14.37,30.75,14.37V305.42z"/>
	<path class="st0" d="M448.39,210.71c-4.63-6.83-10.91-11.74-17.79-14.83c-6.89-3.1-14.39-4.45-21.83-4.46c-0.31,0-0.62,0-0.94,0.01
		l0.02,0c-11.35,0.16-21.07,4.63-27.81,11.29c-6.75,6.65-10.71,15.45-10.73,24.52c0,0.27,0,0.64,0.02,1.1l6.84-0.38l-6.85,0.21
		c0.12,4.29,1.51,8.24,3.6,11.45c3.16,4.84,7.61,8.15,12.14,10.67c4.55,2.51,9.31,4.23,13.48,5.49c5.22,1.57,11.9,3.46,18.09,5.52
		c3.09,1.02,6.04,2.09,8.57,3.13c2.52,1.04,4.62,2.09,5.84,2.89c3.54,2.32,5.28,4.52,6.32,6.58c1.02,2.07,1.38,4.17,1.39,6.42
		c0,1.6-0.2,3.25-0.46,4.87l0-0.02c-0.64,3.74-2.19,6.27-4.4,8.42c-2.2,2.12-5.17,3.73-8.15,4.72c-4.61,1.55-9.33,2.29-13.96,2.29
		c-13.21-0.01-25.62-6.03-33.06-16.66c-2.17-3.1-6.44-3.85-9.54-1.68c-3.1,2.17-3.85,6.44-1.68,9.54
		c10.2,14.55,26.94,22.51,44.28,22.5c6.1,0,12.29-0.98,18.31-3c4.46-1.5,9.21-3.93,13.28-7.82c4.07-3.87,7.35-9.36,8.43-16.1l0-0.02
		c0.31-1.95,0.63-4.35,0.63-7.05c0.01-3.75-0.64-8.15-2.82-12.53c-2.16-4.38-5.84-8.55-11.12-11.97c-2.39-1.54-5.09-2.82-8.06-4.06
		c-4.45-1.84-9.5-3.52-14.43-5.06c-4.93-1.53-9.73-2.91-13.52-4.05c-4.75-1.41-10.15-3.58-13.87-6.29
		c-1.87-1.34-3.29-2.78-4.19-4.18c-0.9-1.42-1.35-2.73-1.42-4.43l-0.01-0.17l-0.01-0.33c-0.02-4.97,2.29-10.5,6.63-14.75
		c4.34-4.24,10.52-7.22,18.41-7.36l0.02,0l0.7-0.01c5.78,0,11.37,1.07,16.2,3.25c4.84,2.19,8.93,5.42,12.09,10.05
		c2.13,3.13,6.39,3.94,9.52,1.81C449.71,218.1,450.52,213.84,448.39,210.71L448.39,210.71z"/>
	<path class="st0" d="M448.39,210.71l0.41-0.28c-4.69-6.91-11.04-11.88-18-15.01c-6.97-3.14-14.53-4.5-22.03-4.5
		c-0.31,0-0.63,0-0.95,0.01l0.02,1l0.02,0l-0.02-1c-11.48,0.16-21.32,4.69-28.16,11.43c-6.83,6.73-10.86,15.66-10.88,24.88v0
		c0,0.27,0,0.65,0.03,1.13l0.03,0.5l7.34-0.41l-0.04-1l-7.35,0.23l0.01,0.5c0.12,4.39,1.55,8.43,3.68,11.71
		c3.22,4.93,7.75,8.29,12.32,10.83l0,0c4.6,2.53,9.38,4.27,13.57,5.53c5.22,1.57,11.91,3.47,18.08,5.51
		c3.08,1.02,6.03,2.08,8.53,3.12c2.5,1.03,4.58,2.07,5.76,2.84c3.48,2.29,5.14,4.41,6.15,6.39l0,0c0.98,1.99,1.33,4,1.33,6.2v0
		c0,1.56-0.19,3.18-0.45,4.79l0.49,0.08l0.5,0.06l0-0.02l-0.99-0.15c-0.62,3.64-2.1,6.04-4.25,8.15l0,0
		c-2.13,2.06-5.03,3.63-7.96,4.6c-4.56,1.53-9.22,2.27-13.8,2.27c-13.06-0.01-25.32-5.96-32.65-16.44
		c-1.43-2.04-3.71-3.14-6.03-3.13c-1.46,0-2.93,0.43-4.21,1.33c-2.04,1.43-3.14,3.71-3.14,6.03c0,1.46,0.43,2.93,1.33,4.21
		c10.29,14.69,27.18,22.71,44.67,22.71l0.02,0h0c6.15,0,12.39-0.99,18.47-3.03c4.52-1.52,9.33-3.98,13.47-7.94
		c4.14-3.94,7.48-9.52,8.58-16.38l0-0.01l0-0.02l-0.5-0.06l0.49,0.08c0.32-1.96,0.64-4.39,0.64-7.13v-0.06
		c0-3.79-0.66-8.26-2.87-12.69l0,0c-2.21-4.47-5.95-8.71-11.3-12.17c-2.43-1.57-5.15-2.86-8.14-4.1c-4.48-1.85-9.54-3.54-14.48-5.08
		c-4.93-1.53-9.74-2.91-13.52-4.05c-4.72-1.4-10.08-3.56-13.71-6.22l0,0l0,0c-1.83-1.31-3.21-2.72-4.06-4.04l0,0
		c-0.86-1.37-1.27-2.56-1.34-4.19l0,0l-0.01-0.17l-0.01-0.32l-0.5,0.01l0.5,0l0-0.05c0-4.8,2.25-10.2,6.48-14.34
		c4.26-4.16,10.3-7.08,18.07-7.21l0.02,0l0.69-0.01h0l0.02,0c5.71,0,11.23,1.06,15.97,3.2c4.77,2.16,8.78,5.33,11.88,9.87
		c1.42,2.09,3.73,3.22,6.08,3.22c1.42,0,2.86-0.41,4.13-1.27c2.09-1.42,3.22-3.74,3.22-6.09c0-1.42-0.41-2.86-1.27-4.13l-0.15-0.22
		h-0.27V210.71l0.41-0.28L448.39,210.71v0.5h0L448.39,210.71l-0.41,0.28c0.74,1.09,1.1,2.34,1.1,3.57c0,2.03-0.97,4.03-2.78,5.26
		c-1.1,0.74-2.34,1.1-3.57,1.1c-2.03,0-4.03-0.97-5.26-2.78c-3.21-4.71-7.39-8-12.3-10.22c-4.9-2.21-10.55-3.29-16.39-3.29l-0.02,0
		h-0.01l-0.69,0.01l0,0l-0.03,0l0,0c-8.01,0.13-14.33,3.17-18.75,7.5c-4.41,4.32-6.78,9.94-6.78,15.05l0,0.06v0l0.01,0.33l0,0.01
		l0.01,0.18l0,0c0.06,1.78,0.56,3.22,1.49,4.68l0,0c0.94,1.47,2.41,2.94,4.32,4.32l0,0c3.8,2.77,9.23,4.94,14.02,6.37
		c3.8,1.14,8.59,2.52,13.51,4.05c4.92,1.53,9.96,3.22,14.39,5.05c2.96,1.23,5.64,2.5,7.98,4.02c5.22,3.37,8.82,7.48,10.94,11.77l0,0
		c2.13,4.26,2.77,8.57,2.77,12.25v0.06c0,2.66-0.31,5.03-0.63,6.97l0,0.01l0,0.02l0.5,0.06l-0.49-0.08
		c-1.06,6.63-4.29,12.02-8.28,15.82c-4.01,3.83-8.68,6.23-13.09,7.71c-5.97,2-12.11,2.98-18.15,2.98h0l-0.03,0
		c-17.18,0-33.76-7.89-43.85-22.29c-0.78-1.11-1.15-2.38-1.15-3.64c0-2,0.94-3.97,2.71-5.21c1.11-0.78,2.38-1.15,3.64-1.15
		c2,0,3.97,0.94,5.21,2.71c7.54,10.77,20.11,16.86,33.47,16.87c4.68,0,9.45-0.75,14.12-2.32c3.04-1.01,6.06-2.64,8.33-4.83l0,0
		c2.26-2.2,3.89-4.86,4.54-8.7l-0.49-0.08l-0.5-0.06l0,0.02l0.99,0.14c0.26-1.64,0.47-3.31,0.47-4.95v0c0-2.31-0.37-4.5-1.44-6.64
		l0,0c-1.08-2.14-2.89-4.42-6.49-6.78c-1.27-0.83-3.38-1.89-5.92-2.93c-2.54-1.05-5.5-2.12-8.6-3.14c-6.2-2.06-12.89-3.96-18.1-5.52
		c-4.15-1.25-8.87-2.96-13.38-5.45l0,0c-4.49-2.5-8.87-5.76-11.97-10.5c-2.04-3.14-3.41-7-3.52-11.19l-0.5,0.01l0.02,0.5l6.85-0.21
		l-0.02-0.5l-0.03-0.5l-6.84,0.38l0.03,0.5l0.5-0.03c-0.02-0.45-0.02-0.8-0.02-1.07v0c0.02-8.93,3.92-17.61,10.58-24.17
		c6.66-6.56,16.25-10.99,27.47-11.14l-0.01-0.5l-0.01-0.5l-0.02,0l0.02,1c0.32-0.01,0.63-0.01,0.93-0.01
		c7.38,0,14.8,1.34,21.62,4.41c6.81,3.06,13,7.91,17.58,14.66l0.15,0.22h0.26V210.71z"/>
</g>
</svg>
