<svg width="111" height="111" viewBox="0 0 111 111" fill="none" xmlns="http://www.w3.org/2000/svg">
<path d="M14.9319 61.9846V44.9616H11.7285C11.3801 44.9464 11.0501 44.8012 10.8035 44.5546C10.5569 44.308 10.4117 43.978 10.3965 43.6296C10.4097 43.2853 10.5558 42.9595 10.8042 42.7206C11.0526 42.4817 11.3839 42.3484 11.7285 42.3487H14.9319V31.6483C14.9232 31.4598 14.9529 31.2715 15.0192 31.0948C15.0855 30.9181 15.1871 30.7568 15.3177 30.6205C15.4483 30.4843 15.6052 30.3761 15.779 30.3024C15.9527 30.2288 16.1396 30.1912 16.3283 30.192C16.5201 30.1899 16.7105 30.2261 16.8881 30.2986C17.0657 30.371 17.2271 30.4782 17.3627 30.6139C17.4984 30.7495 17.6056 30.9109 17.678 31.0885C17.7505 31.2662 17.7867 31.4565 17.7846 31.6483V42.342H27.1086C27.4569 42.3578 27.7866 42.5031 28.0331 42.7496C28.2795 42.9961 28.4249 43.3258 28.4406 43.674C28.4247 44.0175 28.2778 44.3417 28.03 44.58C27.7822 44.8183 27.4524 44.9525 27.1086 44.955H17.7846V61.6938C17.7846 65.9451 20.2888 67.4658 23.7231 67.4658C25.7611 67.4658 26.6935 66.8819 27.102 66.8819C27.4377 66.8945 27.7562 67.0336 27.9937 67.2711C28.2313 67.5086 28.3703 67.8272 28.3829 68.1629C28.3829 68.7467 28.0322 69.153 27.4505 69.3861C26.1076 69.8815 24.6883 70.1377 23.2569 70.1431C18.6482 70.1364 14.9319 67.6323 14.9319 61.9846Z" fill="white"/>
<path d="M14.9317 61.9845H15.0427V44.8439H11.7282C11.4072 44.8386 11.1014 44.706 10.878 44.4754C10.646 44.2514 10.5113 43.9453 10.5028 43.6229C10.5058 43.4676 10.5406 43.3146 10.6051 43.1733C10.6697 43.032 10.7625 42.9055 10.878 42.8015C11.1087 42.5817 11.414 42.4572 11.7327 42.453H15.0427V31.6482C15.0365 31.2941 15.166 30.951 15.4046 30.6892C15.5236 30.5646 15.667 30.466 15.826 30.3996C15.9849 30.3331 16.1558 30.3002 16.3281 30.3029C16.5053 30.3011 16.681 30.3347 16.845 30.4017C17.009 30.4687 17.1581 30.5677 17.2833 30.693C17.4086 30.8183 17.5076 30.9673 17.5746 31.1313C17.6416 31.2953 17.6752 31.4711 17.6734 31.6482V42.453H27.1017C27.4228 42.4671 27.7269 42.601 27.9542 42.8282C28.1814 43.0555 28.3153 43.3596 28.3294 43.6806C28.327 43.8358 28.2926 43.9889 28.2284 44.1302C28.1643 44.2715 28.0717 44.3981 27.9564 44.502C27.7263 44.7228 27.4206 44.8475 27.1017 44.8506H17.6734V61.6937C17.6734 63.8382 18.3083 65.319 19.3939 66.2536C20.4795 67.1882 21.9913 67.5701 23.7229 67.5701C24.5093 67.5739 25.2926 67.4716 26.0517 67.2659C26.3247 67.1905 26.5467 67.1172 26.7177 67.0639C26.8407 67.0186 26.969 66.9895 27.0995 66.9773C27.402 66.9869 27.6895 67.1115 27.9032 67.3259C28.016 67.4314 28.1065 67.5584 28.1694 67.6995C28.2323 67.8406 28.2663 67.9928 28.2695 68.1473C28.2735 68.3881 28.1952 68.6231 28.0475 68.8133C27.8774 69.0152 27.6568 69.1685 27.4081 69.2573L27.4503 69.3594L27.4125 69.255C26.0816 69.7456 24.6751 69.9995 23.2567 70.0054C20.9768 70.0054 18.9233 69.386 17.4425 68.0762C15.9618 66.7664 15.0427 64.7662 15.0427 61.9646H14.8207C14.8207 64.8128 15.762 66.8885 17.296 68.2427C18.83 69.5969 20.939 70.2274 23.2567 70.2274C24.6996 70.2289 26.1316 69.9779 27.488 69.4859V69.4859C27.7723 69.3809 28.0241 69.2034 28.2184 68.9709C28.3988 68.7389 28.4943 68.4522 28.4892 68.1584C28.4853 67.9733 28.4439 67.791 28.3676 67.6224C28.2912 67.4537 28.1816 67.3023 28.0452 67.1771C27.791 66.9222 27.4483 66.7751 27.0884 66.7664C26.9369 66.7787 26.7876 66.8108 26.6444 66.8619C25.7024 67.1926 24.7102 67.3578 23.7118 67.3503C22.0091 67.3503 20.5527 66.9729 19.5271 66.0893C18.5015 65.2058 17.8843 63.8005 17.8843 61.6959V45.0659H27.0906C27.4655 45.0622 27.825 44.9162 28.0963 44.6574C28.2339 44.5328 28.3443 44.3811 28.4207 44.2119C28.4971 44.0427 28.5378 43.8596 28.5403 43.674C28.527 43.2937 28.3701 42.9327 28.101 42.6636C27.832 42.3946 27.4709 42.2376 27.0906 42.2243H17.8954V31.6482C17.8972 31.4419 17.8579 31.2373 17.7797 31.0464C17.7016 30.8554 17.5862 30.6819 17.4403 30.536C17.2944 30.3901 17.1209 30.2747 16.93 30.1966C16.739 30.1185 16.5344 30.0791 16.3281 30.0809C16.1254 30.0784 15.9244 30.1177 15.7376 30.1964C15.5508 30.2751 15.3823 30.3915 15.2425 30.5382C14.9656 30.841 14.8147 31.238 14.8207 31.6482V42.231H11.7282C11.3527 42.2348 10.9926 42.3808 10.7204 42.6395C10.5831 42.7644 10.4729 42.9161 10.3965 43.0852C10.3202 43.2544 10.2793 43.4374 10.2764 43.6229C10.2913 44.0024 10.4493 44.3621 10.7187 44.6298C10.988 44.8975 11.3487 45.0533 11.7282 45.0659H14.8207V61.9779L14.9317 61.9845Z" fill="white"/>
<path d="M33.7882 43.5985C33.7862 43.4161 33.8214 43.2353 33.8915 43.0669C33.9616 42.8985 34.0652 42.7462 34.196 42.6191C34.3268 42.492 34.4821 42.3929 34.6524 42.3277C34.8227 42.2625 35.0045 42.2326 35.1868 42.2398C36.0015 42.2398 36.6431 42.7837 36.6431 43.5985V69.0619C36.6493 69.2454 36.6171 69.4282 36.5485 69.5985C36.4799 69.7689 36.3764 69.923 36.2447 70.0509C36.113 70.1789 35.9559 70.2779 35.7837 70.3415C35.6114 70.4052 35.4278 70.4321 35.2445 70.4205C34.4297 70.4205 33.7882 69.8766 33.7882 69.0619V43.5985Z" fill="white"/>
<path d="M33.7884 43.5985H33.8994C33.8978 43.4338 33.929 43.2706 33.9911 43.1181C34.0533 42.9656 34.1451 42.8271 34.2613 42.7105C34.3841 42.592 34.5291 42.4991 34.688 42.437C34.8469 42.3748 35.0165 42.3448 35.187 42.3486C35.5384 42.3397 35.8805 42.4624 36.1461 42.6927C36.2706 42.8075 36.3695 42.9473 36.436 43.1031C36.5026 43.2588 36.5354 43.4269 36.5324 43.5962V69.0597C36.5371 69.2272 36.5077 69.3939 36.4459 69.5496C36.3841 69.7053 36.2911 69.8468 36.1727 69.9654C35.9198 70.1961 35.5868 70.3187 35.2448 70.3073C34.8934 70.3158 34.5515 70.1931 34.2857 69.9632C34.1609 69.8486 34.062 69.7088 33.9954 69.553C33.9288 69.3972 33.8961 69.229 33.8994 69.0597V43.5985H33.6774V69.0619C33.6741 69.2622 33.7134 69.461 33.7926 69.6451C33.8718 69.8292 33.9892 69.9943 34.137 70.1297C34.4442 70.3969 34.8399 70.5402 35.247 70.5315C35.6463 70.5432 36.0343 70.3982 36.3281 70.1275C36.4684 69.9884 36.5787 69.8222 36.6524 69.6389C36.7261 69.4557 36.7615 69.2593 36.7566 69.0619V43.5985C36.7599 43.3981 36.7206 43.1993 36.6414 43.0152C36.5622 42.8312 36.4448 42.666 36.297 42.5306C35.99 42.2631 35.5942 42.1198 35.187 42.1288C34.9873 42.1251 34.7888 42.1609 34.6029 42.234C34.417 42.3071 34.2473 42.4162 34.1037 42.5551C33.9669 42.6919 33.8587 42.8547 33.7855 43.0339C33.7123 43.213 33.6756 43.4049 33.6774 43.5985H33.7884Z" fill="white"/>
<path d="M33.5664 32.5985C33.5668 32.8926 33.6545 33.1799 33.8182 33.4243C33.9819 33.6686 34.2143 33.8589 34.4861 33.9711C34.758 34.0833 35.057 34.1125 35.3453 34.0548C35.6337 33.9972 35.8985 33.8554 36.1063 33.6473C36.3141 33.4392 36.4556 33.1741 36.5128 32.8857C36.57 32.5972 36.5404 32.2982 36.4278 32.0266C36.3151 31.7549 36.1245 31.5227 35.8799 31.3594C35.6354 31.1961 35.3479 31.1089 35.0538 31.1089C34.8583 31.1089 34.6647 31.1474 34.4841 31.2223C34.3035 31.2972 34.1394 31.407 34.0013 31.5453C33.8631 31.6837 33.7536 31.8479 33.679 32.0286C33.6044 32.2093 33.5661 32.403 33.5664 32.5985Z" fill="white"/>
<path d="M33.5661 32.5984H33.4551C33.4555 32.9145 33.5496 33.2233 33.7255 33.4858C33.9014 33.7484 34.1512 33.9529 34.4433 34.0736C34.7354 34.1942 35.0568 34.2255 35.3667 34.1636C35.6766 34.1017 35.9612 33.9493 36.1845 33.7257C36.4078 33.502 36.5598 33.2172 36.6213 32.9072C36.6828 32.5972 36.651 32.2759 36.53 31.984C36.4089 31.6921 36.2041 31.4426 35.9413 31.267C35.6785 31.0915 35.3695 30.9978 35.0535 30.9978C34.8434 30.9978 34.6354 31.0392 34.4413 31.1197C34.2472 31.2001 34.0709 31.3181 33.9225 31.4667C33.774 31.6154 33.6563 31.7919 33.5761 31.9861C33.4959 32.1802 33.4548 32.3883 33.4551 32.5984H33.6771C33.6764 32.2794 33.7865 31.97 33.9885 31.723C34.1904 31.476 34.4718 31.3067 34.7846 31.244C35.0975 31.1813 35.4224 31.229 35.704 31.379C35.9855 31.529 36.2064 31.7721 36.3288 32.0667C36.4512 32.3613 36.4677 32.6893 36.3753 32.9947C36.283 33.3001 36.0876 33.564 35.8224 33.7415C35.5572 33.9189 35.2388 33.9989 34.9212 33.9677C34.6037 33.9366 34.3068 33.7963 34.0811 33.5708C33.9528 33.4435 33.8509 33.292 33.7816 33.1251C33.7122 32.9582 33.6767 32.7792 33.6771 32.5984H33.5661Z" fill="white"/>
<path d="M43.4942 43.5986C43.4923 43.4165 43.5274 43.2358 43.5973 43.0676C43.6673 42.8994 43.7707 42.7471 43.9013 42.6201C44.0319 42.4931 44.1869 42.3939 44.3569 42.3285C44.527 42.2632 44.7086 42.2331 44.8906 42.24C45.7053 42.24 46.3469 42.7839 46.3469 43.5986V69.062C46.3535 69.2454 46.3216 69.4282 46.2532 69.5985C46.1848 69.7689 46.0816 69.923 45.95 70.051C45.8185 70.179 45.6616 70.278 45.4894 70.3417C45.3173 70.4053 45.1337 70.4322 44.9505 70.4206C44.1336 70.4206 43.4942 69.8767 43.4942 69.062V43.5986Z" fill="white"/>
<path d="M43.4942 43.5985H43.6052C43.6028 43.4339 43.6334 43.2706 43.6952 43.1181C43.757 42.9656 43.8487 42.827 43.9649 42.7105C44.0876 42.592 44.2327 42.4991 44.3916 42.437C44.5504 42.3748 44.7201 42.3448 44.8906 42.3486C45.242 42.3397 45.5841 42.4624 45.8497 42.6927C45.9746 42.8072 46.0736 42.947 46.1402 43.1028C46.2068 43.2586 46.2395 43.4268 46.2359 43.5962V69.0596C46.2413 69.2272 46.2121 69.3941 46.1502 69.5499C46.0883 69.7057 45.9951 69.8471 45.8763 69.9654C45.6241 70.1957 45.2919 70.3184 44.9506 70.3073C44.5985 70.3161 44.2558 70.1934 43.9893 69.9632C43.8649 69.8484 43.7663 69.7085 43.7001 69.5527C43.6339 69.3969 43.6016 69.2288 43.6052 69.0596V43.5985H43.3832V69.0618C43.3791 69.2621 43.4177 69.461 43.4966 69.6451C43.5755 69.8293 43.6927 69.9945 43.8406 70.1297C44.1481 70.3963 44.5436 70.5395 44.9506 70.5315C45.3491 70.5426 45.7362 70.3976 46.0295 70.1275C46.1697 69.9884 46.2801 69.8221 46.3537 69.6389C46.4274 69.4556 46.4629 69.2593 46.4579 69.0618V43.5985C46.4617 43.398 46.4226 43.1991 46.3434 43.015C46.2641 42.8308 46.1465 42.6657 45.9984 42.5306C45.6914 42.2631 45.2955 42.1198 44.8884 42.1288C44.689 42.1252 44.4908 42.1609 44.3053 42.2341C44.1198 42.3072 43.9505 42.4163 43.8073 42.5551C43.6696 42.6913 43.5609 42.854 43.4877 43.0333C43.4144 43.2126 43.3782 43.4048 43.381 43.5985H43.4942Z" fill="white"/>
<path d="M43.1079 32.5985C43.1079 32.8932 43.1953 33.1813 43.3591 33.4263C43.5229 33.6713 43.7557 33.8623 44.028 33.975C44.3003 34.0876 44.5999 34.117 44.889 34.0593C45.178 34.0017 45.4434 33.8596 45.6516 33.651C45.8599 33.4425 46.0016 33.1769 46.0588 32.8878C46.116 32.5987 46.0862 32.2991 45.9731 32.0269C45.86 31.7548 45.6688 31.5223 45.4235 31.3589C45.1783 31.1954 44.89 31.1084 44.5953 31.1089C44.3998 31.1089 44.2062 31.1474 44.0256 31.2223C43.845 31.2972 43.6809 31.407 43.5428 31.5453C43.4046 31.6837 43.2951 31.8479 43.2205 32.0286C43.1459 32.2093 43.1076 32.403 43.1079 32.5985Z" fill="white"/>
<path d="M43.1081 32.5984H42.9971C42.9971 32.9151 43.091 33.2246 43.267 33.4879C43.443 33.7512 43.6931 33.9563 43.9857 34.0774C44.2783 34.1985 44.6002 34.2301 44.9108 34.1681C45.2213 34.1062 45.5065 33.9535 45.7303 33.7295C45.954 33.5054 46.1063 33.22 46.1678 32.9093C46.2293 32.5987 46.1973 32.2768 46.0758 31.9844C45.9543 31.6919 45.7488 31.4421 45.4853 31.2665C45.2218 31.0909 44.9121 30.9974 44.5955 30.9978C44.1713 30.9984 43.7648 31.1673 43.4651 31.4674C43.1654 31.7675 42.9971 32.1743 42.9971 32.5984H43.2191C43.2184 32.2794 43.3285 31.97 43.5305 31.723C43.7324 31.476 44.0138 31.3067 44.3266 31.244C44.6395 31.1813 44.9644 31.229 45.2459 31.379C45.5275 31.529 45.7483 31.7721 45.8708 32.0667C45.9932 32.3613 46.0096 32.6893 45.9173 32.9947C45.825 33.3001 45.6296 33.564 45.3644 33.7415C45.0992 33.9189 44.7807 33.9989 44.4632 33.9677C44.1457 33.9366 43.8488 33.7963 43.6231 33.5708C43.4951 33.4432 43.3936 33.2917 43.3243 33.1248C43.2549 32.958 43.2192 32.7791 43.2191 32.5984H43.1081Z" fill="white"/>
<path d="M65.5411 42.24C61.5451 42.24 57.9931 44.3579 55.6999 47.6435V44.0471C55.6999 42.9615 55.0605 42.24 54.2458 42.24C53.431 42.24 52.8472 43.0347 52.8472 44.0471V77.891C52.8472 78.9743 53.4887 79.698 54.3035 79.698C55.1182 79.698 55.6999 78.9743 55.6999 77.891V65.1393C57.9953 68.4249 61.5451 70.5428 65.5411 70.5428C72.4631 70.5428 78.0752 64.2069 78.0752 56.3903C78.0752 48.5736 72.4631 42.24 65.5411 42.24ZM65.459 67.8033C60.2242 67.8033 55.9618 63.0036 55.691 56.9741V55.8086C55.9529 49.7769 60.2153 44.9795 65.459 44.9795C70.8647 44.9795 75.2447 50.0855 75.2447 56.3903C75.2447 62.6951 70.8647 67.8033 65.459 67.8033Z" fill="white"/>
<path d="M65.5408 42.2399V42.1289C61.5048 42.1289 57.9217 44.269 55.6085 47.5812L55.6995 47.6434H55.8105V44.047C55.827 43.5492 55.6701 43.0611 55.3665 42.6661C55.2328 42.5 55.0639 42.3657 54.8719 42.2728C54.6799 42.1799 54.4698 42.1307 54.2565 42.1289C54.0423 42.1309 53.8315 42.1835 53.6413 42.2822C53.4512 42.381 53.287 42.5231 53.1621 42.6972C52.8813 43.0904 52.7357 43.564 52.7469 44.047V77.8909C52.7295 78.3888 52.8865 78.8772 53.1909 79.2717C53.3243 79.4382 53.4932 79.5728 53.6852 79.6657C53.8772 79.7587 54.0876 79.8076 54.3009 79.809C54.5123 79.8094 54.7208 79.7609 54.9103 79.6673C55.0998 79.5738 55.2651 79.4376 55.3932 79.2695C55.6808 78.8688 55.8269 78.3838 55.8083 77.8909V65.1392H55.6973L55.6063 65.2014C57.9195 68.5136 61.5026 70.6537 65.5386 70.6537C69.0351 70.6537 72.1986 69.0531 74.4852 66.4712C76.7718 63.8893 78.1837 60.3262 78.1837 56.3902C78.1837 52.4541 76.7718 48.8932 74.4852 46.3114C72.1986 43.7295 69.0351 42.1289 65.5386 42.1289V42.3509C68.964 42.3509 72.0676 43.9182 74.3187 46.4579C76.5697 48.9976 77.9617 52.5096 77.9617 56.3902C77.9617 60.2707 76.5675 63.785 74.3187 66.3247C72.0698 68.8644 68.964 70.4317 65.5386 70.4317C61.5825 70.4317 58.066 68.336 55.7883 65.0748L55.5863 64.7862V77.8842C55.6046 78.3273 55.4749 78.7639 55.2178 79.1252C55.1113 79.2676 54.9729 79.383 54.8136 79.462C54.6543 79.5411 54.4787 79.5816 54.3009 79.5803C54.1187 79.5804 53.9388 79.5393 53.7746 79.4601C53.6105 79.3809 53.4663 79.2657 53.353 79.123C53.0801 78.7691 52.9395 78.3309 52.9556 77.8842V44.047C52.9443 43.612 53.0744 43.1852 53.3263 42.8304C53.4303 42.6837 53.5676 42.5637 53.727 42.4803C53.8864 42.3969 54.0633 42.3526 54.2432 42.3509C54.4254 42.3511 54.6052 42.3924 54.7693 42.4715C54.9334 42.5507 55.0776 42.6658 55.1911 42.8082C55.4624 43.1629 55.6021 43.6008 55.5863 44.047V47.9964L55.7883 47.7078C58.066 44.4466 61.5825 42.3509 65.5386 42.3509L65.5408 42.2399ZM65.4586 67.8032V67.6922C62.8768 67.6922 60.5325 66.509 58.7986 64.5842C57.0648 62.6595 55.9437 59.9599 55.8105 56.9696H55.6995H55.8105V55.8041H55.6995H55.8105C55.9006 52.9997 56.9561 50.3123 58.7986 48.1962C60.5325 46.2648 62.8768 45.0882 65.4586 45.0882C68.1226 45.0882 70.5402 46.3469 72.294 48.3915C74.0478 50.4361 75.1334 53.2622 75.1334 56.3835C75.1334 59.5048 74.0478 62.3376 72.294 64.3755C70.5402 66.4135 68.1249 67.6789 65.4586 67.6789V67.9009C68.1981 67.9009 70.6734 66.6066 72.4627 64.5198C74.2521 62.433 75.3487 59.5559 75.3487 56.3769C75.3487 53.1978 74.2387 50.3229 72.4627 48.2361C70.6867 46.1493 68.1981 44.8551 65.4586 44.8551C62.808 44.8551 60.4037 46.0716 58.6321 48.0452C56.7558 50.1986 55.6807 52.9339 55.5885 55.7886V56.9629C55.6804 59.8184 56.7555 62.5544 58.6321 64.7085C60.4081 66.6821 62.808 67.8987 65.4586 67.8987V67.8032Z" fill="white"/>
<path d="M99.5423 46.7776C98.5571 45.3347 97.1896 44.1947 95.5929 43.4853C94.0654 42.8176 92.4137 42.4809 90.7467 42.4974H90.5402C88.2334 42.5018 86.0181 43.4002 84.3598 45.0038C83.6231 45.709 83.0333 46.5531 82.6245 47.4873C82.2156 48.4216 81.9958 49.4276 81.9777 50.4472C81.9777 50.5072 81.9777 50.5893 81.9777 50.6914L83.4962 50.6071L81.9755 50.6537C82.0033 51.5583 82.2798 52.4378 82.7747 53.1956C83.4657 54.194 84.3921 55.0068 85.472 55.5621C86.423 56.0726 87.4254 56.4811 88.4623 56.7809C89.6212 57.1294 91.1063 57.5512 92.4783 58.0063C93.1643 58.2283 93.8103 58.4703 94.3808 58.7012C94.8302 58.8784 95.2639 59.093 95.6773 59.3428C96.2697 59.6933 96.7548 60.1993 97.0803 60.8057C97.294 61.2498 97.399 61.7383 97.3867 62.231C97.3811 62.5935 97.347 62.955 97.2846 63.3121V63.3121C97.1784 64.0268 96.8352 64.6851 96.31 65.1814C95.7896 65.6571 95.1724 66.0146 94.5007 66.2292C93.4989 66.5653 92.4494 66.737 91.3927 66.7376C88.4601 66.7376 85.7051 65.4056 84.0534 63.0391C83.9398 62.8731 83.7944 62.7314 83.6257 62.622C83.457 62.5126 83.2682 62.4378 83.0704 62.4018C82.8725 62.3659 82.6695 62.3695 82.4731 62.4126C82.2767 62.4556 82.0907 62.5372 81.926 62.6525C81.7613 62.7679 81.6211 62.9148 81.5136 63.0847C81.4061 63.2546 81.3333 63.4442 81.2995 63.6424C81.2657 63.8406 81.2715 64.0436 81.3167 64.2395C81.3618 64.4355 81.4454 64.6205 81.5626 64.784C83.827 68.0141 87.5432 69.7812 91.3927 69.779C92.7755 69.7781 94.1489 69.5532 95.4597 69.113C96.5582 68.7571 97.5648 68.1636 98.4079 67.3747C99.4072 66.4211 100.065 65.1651 100.279 63.8005V63.8005C100.368 63.2834 100.414 62.76 100.419 62.2354C100.431 61.272 100.217 60.3193 99.7932 59.4538C99.2264 58.3588 98.3732 57.4381 97.3245 56.7898C96.7557 56.4374 96.1569 56.1358 95.5352 55.8884C94.5473 55.48 93.424 55.107 92.3295 54.7651C91.2351 54.4232 90.1717 54.1191 89.3303 53.8771C88.2736 53.5641 87.077 53.0824 86.2512 52.4807C85.8864 52.2316 85.571 51.917 85.321 51.5528C85.1251 51.2615 85.0165 50.9203 85.008 50.5693V50.4561C85.0475 49.2127 85.5775 48.0355 86.4821 47.1816C87.5806 46.1271 89.0463 45.5411 90.5691 45.5477H90.7289C91.9651 45.5306 93.1908 45.7757 94.3253 46.267C95.4103 46.741 96.3402 47.5102 97.0093 48.487C97.1217 48.6521 97.2655 48.7935 97.4325 48.9031C97.5996 49.0127 97.7866 49.0883 97.9828 49.1256C98.1791 49.1629 98.3807 49.1612 98.5763 49.1206C98.7719 49.0799 98.9576 49.0012 99.1227 48.8888C99.2879 48.7764 99.4293 48.6326 99.5389 48.4656C99.6484 48.2985 99.724 48.1115 99.7614 47.9153C99.7987 47.719 99.797 47.5174 99.7563 47.3218C99.7157 47.1262 99.6369 46.9405 99.5246 46.7753L99.5423 46.7776Z" fill="white"/>
<path d="M99.5425 46.7776L99.6336 46.7155C98.6371 45.2555 97.2533 44.1024 95.6376 43.3855C94.098 42.7128 92.4336 42.3731 90.7536 42.3887H90.5427V42.6107V42.3887C88.2092 42.3947 85.9687 43.3041 84.2911 44.9262C83.5441 45.642 82.9462 46.4986 82.5316 47.4465C82.1171 48.3945 81.8942 49.4151 81.8758 50.4495V50.4495C81.8758 50.5095 81.8758 50.5938 81.8758 50.7004V50.8114L83.5053 50.7204L83.4942 50.4984L81.8647 50.5472V50.6582C81.8933 51.5833 82.176 52.4826 82.6816 53.2578C83.3826 54.2712 84.3218 55.0969 85.4167 55.6621V55.6621C86.376 56.1754 87.3864 56.5869 88.4314 56.8897C89.5903 57.2383 91.0732 57.6601 92.443 58.1152C93.1267 58.3372 93.775 58.5769 94.3389 58.8078C94.7817 58.9809 95.2088 59.1918 95.6154 59.4383C96.1916 59.7774 96.6638 60.2681 96.9807 60.8569V60.8569C97.1859 61.2861 97.2871 61.7576 97.2759 62.2333V62.2333C97.2708 62.5898 97.2374 62.9454 97.176 63.2967L97.2848 63.3144L97.3958 63.3277L97.1738 63.2944C97.0731 63.9869 96.7405 64.6248 96.2303 65.1037V65.1037C95.7204 65.5704 95.1141 65.919 94.4543 66.1249C93.4671 66.4575 92.4324 66.6277 91.3907 66.6289C88.4914 66.6289 85.7719 65.2969 84.1424 62.977C83.8828 62.6533 83.5096 62.4406 83.0987 62.3823C82.6879 62.324 82.2702 62.4245 81.9308 62.6632C81.5914 62.9019 81.3557 63.261 81.2716 63.6674C81.1876 64.0738 81.2615 64.4969 81.4784 64.8507C83.7628 68.1096 87.5124 69.8923 91.3951 69.8923C92.789 69.8937 94.1738 69.6687 95.4955 69.2263C96.6092 68.8655 97.63 68.2646 98.4858 67.4658C99.5025 66.4946 100.172 65.2161 100.391 63.8272V63.8272L100.282 63.8139L100.391 63.8317C100.481 63.3088 100.528 62.7794 100.533 62.2488V62.2355C100.542 61.2597 100.324 60.2951 99.8955 59.4183V59.4183C99.3187 58.3077 98.4518 57.3741 97.3869 56.7166C96.8129 56.36 96.2081 56.0554 95.5798 55.8064C94.5853 55.3957 93.462 55.0205 92.3653 54.6786C91.2686 54.3367 90.2052 54.0326 89.3638 53.7795C88.316 53.4687 87.1261 52.9892 86.318 52.4009C85.9648 52.1592 85.6593 51.8544 85.4167 51.5018C85.2313 51.2272 85.1288 50.9051 85.1214 50.5738V50.4651V50.454C85.1423 49.8507 85.2818 49.2575 85.5321 48.7082C85.7823 48.1589 86.1384 47.6643 86.58 47.2527C87.6577 46.2169 89.0967 45.642 90.5915 45.6499H90.7536C91.9744 45.634 93.1848 45.8761 94.3056 46.3603C95.3735 46.8286 96.2882 47.5879 96.9451 48.5514C97.0638 48.7329 97.2174 48.8889 97.3971 49.0103C97.5767 49.1318 97.7788 49.2162 97.9914 49.2586C98.204 49.3011 98.423 49.3007 98.6355 49.2576C98.848 49.2145 99.0497 49.1294 99.229 49.0074C99.4082 48.8854 99.5614 48.7289 99.6794 48.547C99.7975 48.3652 99.8781 48.1616 99.9166 47.9482C99.9551 47.7348 99.9507 47.5159 99.9036 47.3042C99.8566 47.0926 99.7678 46.8924 99.6424 46.7155L99.6091 46.6666H99.5514V46.7776L99.6424 46.7155L99.5514 46.7776V46.8886V46.7776L99.456 46.842C99.6504 47.1516 99.7172 47.5244 99.6423 47.8822C99.5675 48.24 99.3568 48.5548 99.0545 48.7604C98.7523 48.966 98.3821 49.0464 98.0218 48.9847C97.6615 48.9229 97.3392 48.7238 97.1227 48.4293C96.4432 47.4321 95.497 46.6459 94.3921 46.1605C93.2449 45.6638 92.0058 45.4149 90.7558 45.4301H90.576C89.0249 45.4235 87.5321 46.0206 86.4135 47.0951C85.4903 47.9675 84.9486 49.1689 84.9061 50.4384V50.4517V50.525V50.565C84.9155 50.9357 85.0302 51.296 85.2369 51.6039V51.6039C85.4952 51.9795 85.8203 52.3046 86.1959 52.563V52.563C87.0395 53.1757 88.245 53.6596 89.3039 53.9749C90.1475 54.228 91.2131 54.5343 92.3031 54.874C93.3931 55.2136 94.5231 55.5866 95.4999 55.984C96.1173 56.2262 96.7117 56.5234 97.2759 56.872C98.3122 57.509 99.1557 58.4161 99.7157 59.496C100.128 60.3428 100.338 61.2738 100.328 62.2155V62.2288C100.325 62.7498 100.278 63.2696 100.189 63.7828V63.7828L100.3 63.7962L100.189 63.7806C99.9764 65.1218 99.3289 66.3559 98.346 67.2927C97.5154 68.0705 96.523 68.655 95.44 69.0043C94.1411 69.4432 92.7795 69.6681 91.4085 69.6703V69.6703C87.5945 69.6703 83.9137 67.9187 81.6738 64.7219C81.5613 64.5706 81.4803 64.3983 81.4356 64.2152C81.3909 64.032 81.3834 63.8418 81.4135 63.6557C81.4436 63.4696 81.5107 63.2914 81.6109 63.1317C81.711 62.972 81.8422 62.8341 81.9967 62.726C82.1511 62.6179 82.3257 62.5418 82.51 62.5024C82.6943 62.4629 82.8847 62.4608 83.0699 62.4962C83.255 62.5316 83.4312 62.6038 83.588 62.7085C83.7447 62.8132 83.8789 62.9483 83.9826 63.1057C85.6564 65.4967 88.447 66.8487 91.4129 66.8509C92.4787 66.8495 93.5373 66.6756 94.5475 66.3358C95.2349 66.1178 95.8661 65.7518 96.3968 65.2636V65.2636C96.9387 64.7502 97.2935 64.0703 97.4047 63.3322L97.2937 63.3144L97.1849 63.2989L97.4069 63.33C97.4714 62.9671 97.5063 62.5996 97.5112 62.2311C97.5233 61.7206 97.4137 61.2145 97.1916 60.7548V60.7548C96.8578 60.1309 96.3595 59.6103 95.7508 59.2496C95.3319 58.996 94.8922 58.7784 94.4365 58.5991C93.8727 58.3771 93.2133 58.1285 92.5273 57.9021C91.1509 57.4447 89.6658 57.0141 88.5069 56.6744C87.4783 56.3759 86.4836 55.9712 85.5388 55.4667V55.4667C84.4725 54.9198 83.5575 54.1184 82.8748 53.1335C82.3915 52.3927 82.1212 51.5334 82.0933 50.6493H81.9823V50.7603L83.5008 50.7137V50.616V50.505L81.9823 50.5894V50.7004H82.0933C82.0933 50.6005 82.0933 50.5206 82.0933 50.4606C82.1115 49.4555 82.3284 48.4639 82.7315 47.543C83.1346 46.6221 83.716 45.7901 84.4421 45.0949C86.0789 43.5135 88.2645 42.6272 90.5404 42.6218V42.3998V42.6218H90.7491C92.4002 42.6051 94.0361 42.9388 95.5488 43.6008C97.1275 44.2964 98.4807 45.419 99.456 46.842L99.4893 46.8909H99.5492L99.5425 46.7776Z" fill="white"/>
</svg>
