<svg width="91" height="50" viewBox="0 0 91 50" fill="none" xmlns="http://www.w3.org/2000/svg">
<path d="M4.93188 31.9846V14.9616H1.72849C1.38009 14.9464 1.05008 14.8012 0.803485 14.5546C0.556885 14.308 0.411684 13.978 0.396484 13.6296C0.409684 13.2853 0.555785 12.9595 0.804185 12.7206C1.05258 12.4817 1.38389 12.3484 1.72849 12.3487H4.93188V1.64828C4.92318 1.45978 4.95289 1.27148 5.01919 1.09478C5.08549 0.918082 5.18709 0.756782 5.31769 0.620482C5.44829 0.484282 5.60519 0.376082 5.77899 0.302382C5.95269 0.228782 6.13959 0.191181 6.32829 0.191981C6.52009 0.189881 6.71048 0.226081 6.88808 0.298581C7.06568 0.370981 7.22708 0.478181 7.36268 0.613881C7.49838 0.749481 7.60558 0.910881 7.67798 1.08848C7.75048 1.26618 7.78668 1.45648 7.78458 1.64828V12.342H17.1086C17.4569 12.3578 17.7866 12.5031 18.0331 12.7496C18.2795 12.9961 18.4249 13.3258 18.4406 13.674C18.4247 14.0175 18.2778 14.3417 18.03 14.58C17.7822 14.8183 17.4524 14.9525 17.1086 14.955H7.78458V31.6938C7.78458 35.9451 10.2888 37.4658 13.7231 37.4658C15.7611 37.4658 16.6935 36.8819 17.102 36.8819C17.4377 36.8945 17.7562 37.0336 17.9937 37.2711C18.2313 37.5086 18.3703 37.8272 18.3829 38.1629C18.3829 38.7467 18.0322 39.153 17.4505 39.3861C16.1076 39.8815 14.6883 40.1377 13.2569 40.1431C8.64819 40.1364 4.93188 37.6323 4.93188 31.9846Z" fill="white"/>
<path d="M4.93167 31.9845H5.04267V14.8439H1.72817C1.40717 14.8386 1.10137 14.706 0.877968 14.4754C0.645968 14.2514 0.511268 13.9453 0.502768 13.6229C0.505768 13.4676 0.540567 13.3146 0.605067 13.1733C0.669667 13.032 0.762468 12.9055 0.877968 12.8015C1.10867 12.5817 1.41397 12.4572 1.73267 12.453H5.04267V1.64822C5.03647 1.29412 5.16597 0.951022 5.40457 0.689222C5.52357 0.564622 5.66697 0.466022 5.82597 0.399622C5.98487 0.333122 6.15577 0.300223 6.32807 0.302923C6.50527 0.301123 6.68097 0.334722 6.84497 0.401722C7.00897 0.468722 7.15807 0.567723 7.28327 0.693023C7.40857 0.818323 7.50757 0.967322 7.57457 1.13132C7.64157 1.29532 7.67517 1.47112 7.67337 1.64822V12.453H17.1017C17.4228 12.4671 17.7269 12.601 17.9542 12.8282C18.1814 13.0555 18.3153 13.3596 18.3294 13.6806C18.327 13.8358 18.2926 13.9889 18.2284 14.1302C18.1643 14.2715 18.0717 14.3981 17.9564 14.502C17.7263 14.7228 17.4206 14.8475 17.1017 14.8506H7.67337V31.6937C7.67337 33.8382 8.30827 35.319 9.39387 36.2536C10.4795 37.1882 11.9913 37.5701 13.7229 37.5701C14.5093 37.5739 15.2926 37.4716 16.0517 37.2659C16.3247 37.1905 16.5467 37.1172 16.7177 37.0639C16.8407 37.0186 16.969 36.9895 17.0995 36.9773C17.402 36.9869 17.6895 37.1115 17.9032 37.3259C18.016 37.4314 18.1065 37.5584 18.1694 37.6995C18.2323 37.8406 18.2663 37.9928 18.2695 38.1473C18.2735 38.3881 18.1952 38.6231 18.0475 38.8133C17.8774 39.0152 17.6568 39.1685 17.4081 39.2573L17.4503 39.3594L17.4125 39.255C16.0816 39.7456 14.6751 39.9995 13.2567 40.0054C10.9768 40.0054 8.92327 39.386 7.44247 38.0762C5.96177 36.7664 5.04267 34.7662 5.04267 31.9646H4.82067C4.82067 34.8128 5.76197 36.8885 7.29597 38.2427C8.82997 39.5969 10.939 40.2274 13.2567 40.2274C14.6996 40.2289 16.1316 39.9779 17.488 39.4859C17.7723 39.3809 18.0241 39.2034 18.2184 38.9709C18.3988 38.7389 18.4943 38.4522 18.4892 38.1584C18.4853 37.9733 18.4439 37.791 18.3676 37.6224C18.2912 37.4537 18.1816 37.3023 18.0452 37.1771C17.791 36.9222 17.4483 36.7751 17.0884 36.7664C16.9369 36.7787 16.7876 36.8108 16.6444 36.8619C15.7024 37.1926 14.7102 37.3578 13.7118 37.3503C12.0091 37.3503 10.5527 36.9729 9.52707 36.0893C8.50147 35.2058 7.88427 33.8005 7.88427 31.6959V15.0659H17.0906C17.4655 15.0622 17.825 14.9162 18.0963 14.6574C18.2339 14.5328 18.3443 14.3811 18.4207 14.2119C18.4971 14.0427 18.5378 13.8596 18.5403 13.674C18.527 13.2937 18.3701 12.9327 18.101 12.6636C17.832 12.3946 17.4709 12.2376 17.0906 12.2243H7.89537V1.64822C7.89717 1.44192 7.85787 1.23732 7.77967 1.04642C7.70157 0.855423 7.58617 0.681922 7.44027 0.536022C7.29437 0.390122 7.12087 0.274723 6.92997 0.196623C6.73897 0.118523 6.53437 0.0791228 6.32807 0.0809228C6.12537 0.0784228 5.92437 0.117722 5.73757 0.196422C5.55077 0.275122 5.38227 0.391523 5.24247 0.538223C4.96557 0.841023 4.81467 1.23802 4.82067 1.64822V12.231H1.72817C1.35267 12.2348 0.992567 12.3808 0.720367 12.6395C0.583067 12.7644 0.472867 12.9161 0.396467 13.0852C0.320167 13.2544 0.279267 13.4374 0.276367 13.6229C0.291267 14.0024 0.449268 14.3621 0.718668 14.6298C0.987968 14.8975 1.34867 15.0533 1.72817 15.0659H4.82067V31.9779L4.93167 31.9845Z" fill="white"/>
<path d="M23.7882 13.5985C23.7862 13.4161 23.8214 13.2353 23.8915 13.0669C23.9616 12.8985 24.0652 12.7462 24.196 12.6191C24.3268 12.492 24.4821 12.3929 24.6524 12.3277C24.8227 12.2625 25.0045 12.2326 25.1868 12.2398C26.0015 12.2398 26.6431 12.7837 26.6431 13.5985V39.0619C26.6493 39.2454 26.6171 39.4282 26.5485 39.5985C26.4799 39.7689 26.3764 39.923 26.2447 40.0509C26.113 40.1789 25.9559 40.2779 25.7837 40.3415C25.6114 40.4052 25.4278 40.4321 25.2445 40.4205C24.4297 40.4205 23.7882 39.8766 23.7882 39.0619V13.5985Z" fill="white"/>
<path d="M23.7884 13.5985H23.8994C23.8978 13.4338 23.929 13.2706 23.9911 13.1181C24.0533 12.9656 24.1451 12.8271 24.2613 12.7105C24.3841 12.592 24.5291 12.4991 24.688 12.437C24.8469 12.3748 25.0165 12.3448 25.187 12.3486C25.5384 12.3397 25.8805 12.4624 26.1461 12.6927C26.2706 12.8075 26.3695 12.9473 26.436 13.1031C26.5026 13.2588 26.5354 13.4269 26.5324 13.5962V39.0597C26.5371 39.2272 26.5077 39.3939 26.4459 39.5496C26.3841 39.7053 26.2911 39.8468 26.1727 39.9654C25.9198 40.1961 25.5868 40.3187 25.2448 40.3073C24.8934 40.3158 24.5515 40.1931 24.2857 39.9632C24.1609 39.8486 24.062 39.7088 23.9954 39.553C23.9288 39.3972 23.8961 39.229 23.8994 39.0597V13.5985H23.6774V39.0619C23.6741 39.2622 23.7134 39.461 23.7926 39.6451C23.8718 39.8292 23.9892 39.9943 24.137 40.1297C24.4442 40.3969 24.8399 40.5402 25.247 40.5315C25.6463 40.5432 26.0343 40.3982 26.3281 40.1275C26.4684 39.9884 26.5787 39.8222 26.6524 39.6389C26.7261 39.4557 26.7615 39.2593 26.7566 39.0619V13.5985C26.7599 13.3981 26.7206 13.1993 26.6414 13.0152C26.5622 12.8312 26.4448 12.666 26.297 12.5306C25.99 12.2631 25.5942 12.1198 25.187 12.1288C24.9873 12.1251 24.7888 12.1609 24.6029 12.234C24.417 12.3071 24.2473 12.4162 24.1037 12.5551C23.9669 12.6919 23.8587 12.8547 23.7855 13.0339C23.7123 13.213 23.6756 13.4049 23.6774 13.5985H23.7884Z" fill="white"/>
<path d="M23.5664 2.59849C23.5668 2.89259 23.6545 3.17989 23.8182 3.42429C23.9819 3.66859 24.2143 3.85889 24.4861 3.97109C24.758 4.08329 25.057 4.11248 25.3453 4.05478C25.6337 3.99718 25.8985 3.85539 26.1063 3.64729C26.3141 3.43919 26.4556 3.17409 26.5128 2.88569C26.57 2.59719 26.5404 2.29819 26.4278 2.02659C26.3151 1.75489 26.1245 1.52269 25.8799 1.35939C25.6354 1.19609 25.3479 1.10889 25.0538 1.10889C24.8583 1.10889 24.6647 1.14739 24.4841 1.22229C24.3035 1.29719 24.1394 1.40699 24.0013 1.54529C23.8631 1.68369 23.7536 1.84789 23.679 2.02859C23.6044 2.20929 23.5661 2.40299 23.5664 2.59849Z" fill="white"/>
<path d="M23.5661 2.5984H23.4551C23.4555 2.9145 23.5496 3.2233 23.7255 3.4858C23.9014 3.7484 24.1512 3.9529 24.4433 4.0736C24.7354 4.1942 25.0568 4.2255 25.3667 4.1636C25.6766 4.1017 25.9612 3.9493 26.1845 3.7257C26.4078 3.502 26.5598 3.2172 26.6213 2.9072C26.6828 2.5972 26.651 2.2759 26.53 1.984C26.4089 1.6921 26.2041 1.4426 25.9413 1.267C25.6785 1.0915 25.3695 0.997803 25.0535 0.997803C24.8434 0.997803 24.6354 1.0392 24.4413 1.1197C24.2472 1.2001 24.0709 1.3181 23.9225 1.4667C23.774 1.6154 23.6563 1.7919 23.5761 1.9861C23.4959 2.1802 23.4548 2.3883 23.4551 2.5984H23.6771C23.6764 2.2794 23.7865 1.97 23.9885 1.723C24.1904 1.476 24.4718 1.3067 24.7846 1.244C25.0975 1.1813 25.4224 1.229 25.704 1.379C25.9855 1.529 26.2064 1.7721 26.3288 2.0667C26.4512 2.3613 26.4677 2.6893 26.3753 2.9947C26.283 3.3001 26.0876 3.564 25.8224 3.7415C25.5572 3.9189 25.2388 3.9989 24.9212 3.9677C24.6037 3.9366 24.3068 3.7963 24.0811 3.5708C23.9528 3.4435 23.8509 3.292 23.7816 3.1251C23.7122 2.9582 23.6767 2.7792 23.6771 2.5984H23.5661Z" fill="white"/>
<path d="M33.4942 13.5986C33.4923 13.4165 33.5274 13.2358 33.5973 13.0676C33.6673 12.8994 33.7707 12.7471 33.9013 12.6201C34.0319 12.4931 34.1869 12.3939 34.3569 12.3285C34.527 12.2632 34.7086 12.2331 34.8906 12.24C35.7053 12.24 36.3469 12.7839 36.3469 13.5986V39.062C36.3535 39.2454 36.3216 39.4282 36.2532 39.5985C36.1848 39.7689 36.0816 39.923 35.95 40.051C35.8185 40.179 35.6616 40.278 35.4894 40.3417C35.3173 40.4053 35.1337 40.4322 34.9505 40.4206C34.1336 40.4206 33.4942 39.8767 33.4942 39.062V13.5986Z" fill="white"/>
<path d="M33.4942 13.5985H33.6052C33.6028 13.4339 33.6334 13.2706 33.6952 13.1181C33.757 12.9656 33.8487 12.827 33.9649 12.7105C34.0876 12.592 34.2327 12.4991 34.3916 12.437C34.5504 12.3748 34.7201 12.3448 34.8906 12.3486C35.242 12.3397 35.5841 12.4624 35.8497 12.6927C35.9746 12.8072 36.0736 12.947 36.1402 13.1028C36.2068 13.2586 36.2395 13.4268 36.2359 13.5962V39.0596C36.2413 39.2272 36.2121 39.3941 36.1502 39.5499C36.0883 39.7057 35.9951 39.8471 35.8763 39.9654C35.6241 40.1957 35.2919 40.3184 34.9506 40.3073C34.5985 40.3161 34.2558 40.1934 33.9893 39.9632C33.8649 39.8484 33.7663 39.7085 33.7001 39.5527C33.6339 39.3969 33.6016 39.2288 33.6052 39.0596V13.5985H33.3832V39.0618C33.3791 39.2621 33.4177 39.461 33.4966 39.6451C33.5755 39.8293 33.6927 39.9945 33.8406 40.1297C34.1481 40.3963 34.5436 40.5395 34.9506 40.5315C35.3491 40.5426 35.7362 40.3976 36.0295 40.1275C36.1697 39.9884 36.2801 39.8221 36.3537 39.6389C36.4274 39.4556 36.4629 39.2593 36.4579 39.0618V13.5985C36.4617 13.398 36.4226 13.1991 36.3434 13.015C36.2641 12.8308 36.1465 12.6657 35.9984 12.5306C35.6914 12.2631 35.2955 12.1198 34.8884 12.1288C34.689 12.1252 34.4908 12.1609 34.3053 12.2341C34.1198 12.3072 33.9505 12.4163 33.8073 12.5551C33.6696 12.6913 33.5609 12.854 33.4877 13.0333C33.4144 13.2126 33.3782 13.4048 33.381 13.5985H33.4942Z" fill="white"/>
<path d="M33.1079 2.59849C33.1079 2.89319 33.1953 3.18129 33.3591 3.42629C33.5229 3.67129 33.7557 3.86229 34.028 3.97499C34.3003 4.08759 34.5999 4.11699 34.889 4.05929C35.178 4.00169 35.4434 3.85959 35.6516 3.65099C35.8599 3.44249 36.0016 3.17689 36.0588 2.88779C36.116 2.59869 36.0862 2.29909 35.9731 2.02689C35.86 1.75479 35.6688 1.52229 35.4235 1.35889C35.1783 1.19539 34.89 1.10839 34.5953 1.10889C34.3998 1.10889 34.2062 1.14739 34.0256 1.22229C33.845 1.29719 33.6809 1.40699 33.5428 1.54529C33.4046 1.68369 33.2951 1.84789 33.2205 2.02859C33.1459 2.20929 33.1076 2.40299 33.1079 2.59849Z" fill="white"/>
<path d="M33.1081 2.5984H32.9971C32.9971 2.9151 33.091 3.2246 33.267 3.4879C33.443 3.7512 33.6931 3.9563 33.9857 4.0774C34.2783 4.1985 34.6002 4.2301 34.9108 4.1681C35.2213 4.1062 35.5065 3.9535 35.7303 3.7295C35.954 3.5054 36.1063 3.22 36.1678 2.9093C36.2293 2.5987 36.1973 2.2768 36.0758 1.9844C35.9543 1.6919 35.7488 1.4421 35.4853 1.2665C35.2218 1.0909 34.9121 0.997404 34.5955 0.997804C34.1713 0.998404 33.7648 1.1673 33.4651 1.4674C33.1654 1.7675 32.9971 2.1743 32.9971 2.5984H33.2191C33.2184 2.2794 33.3285 1.97 33.5305 1.723C33.7324 1.476 34.0138 1.3067 34.3266 1.244C34.6395 1.1813 34.9644 1.229 35.2459 1.379C35.5275 1.529 35.7483 1.7721 35.8708 2.0667C35.9932 2.3613 36.0096 2.6893 35.9173 2.9947C35.825 3.3001 35.6296 3.564 35.3644 3.7415C35.0992 3.9189 34.7807 3.9989 34.4632 3.9677C34.1457 3.9366 33.8488 3.7963 33.6231 3.5708C33.4951 3.4432 33.3936 3.2917 33.3243 3.1248C33.2549 2.958 33.2192 2.7791 33.2191 2.5984H33.1081Z" fill="white"/>
<path d="M55.5411 12.24C51.5451 12.24 47.9931 14.3579 45.6999 17.6435V14.0471C45.6999 12.9615 45.0605 12.24 44.2458 12.24C43.431 12.24 42.8472 13.0347 42.8472 14.0471V47.891C42.8472 48.9743 43.4887 49.698 44.3035 49.698C45.1182 49.698 45.6999 48.9743 45.6999 47.891V35.1393C47.9953 38.4249 51.5451 40.5428 55.5411 40.5428C62.4631 40.5428 68.0752 34.2069 68.0752 26.3903C68.0752 18.5736 62.4631 12.24 55.5411 12.24ZM55.459 37.8033C50.2242 37.8033 45.9618 33.0036 45.691 26.9741V25.8086C45.9529 19.7769 50.2153 14.9795 55.459 14.9795C60.8647 14.9795 65.2447 20.0855 65.2447 26.3903C65.2447 32.6951 60.8647 37.8033 55.459 37.8033Z" fill="white"/>
<path d="M55.5408 12.2399V12.1289C51.5048 12.1289 47.9217 14.269 45.6085 17.5812L45.6995 17.6434H45.8105V14.047C45.827 13.5492 45.6701 13.0611 45.3665 12.6661C45.2328 12.5 45.0639 12.3657 44.8719 12.2728C44.6799 12.1799 44.4698 12.1307 44.2565 12.1289C44.0423 12.1309 43.8315 12.1835 43.6413 12.2822C43.4512 12.381 43.287 12.5231 43.1621 12.6972C42.8813 13.0904 42.7357 13.564 42.7469 14.047V47.8909C42.7295 48.3888 42.8865 48.8772 43.1909 49.2717C43.3243 49.4382 43.4932 49.5728 43.6852 49.6657C43.8772 49.7587 44.0876 49.8076 44.3009 49.809C44.5123 49.8094 44.7208 49.7609 44.9103 49.6673C45.0998 49.5738 45.2651 49.4376 45.3932 49.2695C45.6808 48.8688 45.8269 48.3838 45.8083 47.8909V35.1392H45.6973L45.6063 35.2014C47.9195 38.5136 51.5026 40.6537 55.5386 40.6537C59.0351 40.6537 62.1986 39.0531 64.4852 36.4712C66.7718 33.8893 68.1837 30.3262 68.1837 26.3902C68.1837 22.4541 66.7718 18.8932 64.4852 16.3114C62.1986 13.7295 59.0351 12.1289 55.5386 12.1289V12.3509C58.964 12.3509 62.0676 13.9182 64.3187 16.4579C66.5697 18.9976 67.9617 22.5096 67.9617 26.3902C67.9617 30.2707 66.5675 33.785 64.3187 36.3247C62.0698 38.8644 58.964 40.4317 55.5386 40.4317C51.5825 40.4317 48.066 38.336 45.7883 35.0748L45.5863 34.7862V47.8842C45.6046 48.3273 45.4749 48.7639 45.2178 49.1252C45.1113 49.2676 44.9729 49.383 44.8136 49.462C44.6543 49.5411 44.4787 49.5816 44.3009 49.5803C44.1187 49.5804 43.9388 49.5393 43.7746 49.4601C43.6105 49.3809 43.4663 49.2657 43.353 49.123C43.0801 48.7691 42.9395 48.3309 42.9556 47.8842V14.047C42.9443 13.612 43.0744 13.1852 43.3263 12.8304C43.4303 12.6837 43.5676 12.5637 43.727 12.4803C43.8864 12.3969 44.0633 12.3526 44.2432 12.3509C44.4254 12.3511 44.6052 12.3924 44.7693 12.4715C44.9334 12.5507 45.0776 12.6658 45.1911 12.8082C45.4624 13.1629 45.6021 13.6008 45.5863 14.047V17.9964L45.7883 17.7078C48.066 14.4466 51.5825 12.3509 55.5386 12.3509L55.5408 12.2399ZM55.4586 37.8032V37.6922C52.8768 37.6922 50.5325 36.509 48.7986 34.5842C47.0648 32.6595 45.9437 29.9599 45.8105 26.9696H45.6995H45.8105V25.8041H45.6995H45.8105C45.9006 22.9997 46.9561 20.3123 48.7986 18.1962C50.5325 16.2648 52.8768 15.0882 55.4586 15.0882C58.1226 15.0882 60.5402 16.3469 62.294 18.3915C64.0478 20.4361 65.1334 23.2622 65.1334 26.3835C65.1334 29.5048 64.0478 32.3376 62.294 34.3755C60.5402 36.4135 58.1249 37.6789 55.4586 37.6789V37.9009C58.1981 37.9009 60.6734 36.6066 62.4627 34.5198C64.2521 32.433 65.3487 29.5559 65.3487 26.3769C65.3487 23.1978 64.2387 20.3229 62.4627 18.2361C60.6867 16.1493 58.1981 14.8551 55.4586 14.8551C52.808 14.8551 50.4037 16.0716 48.6321 18.0452C46.7558 20.1986 45.6807 22.9339 45.5885 25.7886V26.9629C45.6804 29.8184 46.7555 32.5544 48.6321 34.7085C50.4081 36.6821 52.808 37.8987 55.4586 37.8987V37.8032Z" fill="white"/>
<path d="M89.5423 16.7776C88.5571 15.3347 87.1896 14.1947 85.5929 13.4853C84.0654 12.8176 82.4137 12.4809 80.7467 12.4974H80.5402C78.2334 12.5018 76.0181 13.4002 74.3598 15.0038C73.6231 15.709 73.0333 16.5531 72.6245 17.4873C72.2156 18.4216 71.9958 19.4276 71.9777 20.4472C71.9777 20.5072 71.9777 20.5893 71.9777 20.6914L73.4962 20.6071L71.9755 20.6537C72.0033 21.5583 72.2798 22.4378 72.7747 23.1956C73.4657 24.194 74.3921 25.0068 75.472 25.5621C76.423 26.0726 77.4254 26.4811 78.4623 26.7809C79.6212 27.1294 81.1063 27.5512 82.4783 28.0063C83.1643 28.2283 83.8103 28.4703 84.3808 28.7012C84.8302 28.8784 85.2639 29.093 85.6773 29.3428C86.2697 29.6933 86.7548 30.1993 87.0803 30.8057C87.294 31.2498 87.399 31.7383 87.3867 32.231C87.3811 32.5935 87.347 32.955 87.2846 33.3121C87.1784 34.0268 86.8352 34.6851 86.31 35.1814C85.7896 35.6571 85.1724 36.0146 84.5007 36.2292C83.4989 36.5653 82.4494 36.737 81.3927 36.7376C78.4601 36.7376 75.7051 35.4056 74.0534 33.0391C73.9398 32.8731 73.7944 32.7314 73.6257 32.622C73.457 32.5126 73.2682 32.4378 73.0704 32.4018C72.8725 32.3659 72.6695 32.3695 72.4731 32.4126C72.2767 32.4556 72.0907 32.5372 71.926 32.6525C71.7613 32.7679 71.6211 32.9148 71.5136 33.0847C71.4061 33.2546 71.3333 33.4442 71.2995 33.6424C71.2657 33.8406 71.2715 34.0436 71.3167 34.2395C71.3618 34.4355 71.4454 34.6205 71.5626 34.784C73.827 38.0141 77.5432 39.7812 81.3927 39.779C82.7755 39.7781 84.1489 39.5532 85.4597 39.113C86.5582 38.7571 87.5648 38.1636 88.4079 37.3747C89.4072 36.4211 90.065 35.1651 90.279 33.8005C90.368 33.2834 90.414 32.76 90.419 32.2354C90.431 31.272 90.217 30.3193 89.7932 29.4538C89.2264 28.3588 88.3732 27.4381 87.3245 26.7898C86.7557 26.4374 86.1569 26.1358 85.5352 25.8884C84.5473 25.48 83.424 25.107 82.3295 24.7651C81.2351 24.4232 80.1717 24.1191 79.3303 23.8771C78.2736 23.5641 77.077 23.0824 76.2512 22.4807C75.8864 22.2316 75.571 21.917 75.321 21.5528C75.1251 21.2615 75.0165 20.9203 75.008 20.5693V20.4561C75.0475 19.2127 75.5775 18.0355 76.4821 17.1816C77.5806 16.1271 79.0463 15.5411 80.5691 15.5477H80.7289C81.9651 15.5306 83.1908 15.7757 84.3253 16.267C85.4103 16.741 86.3402 17.5102 87.0093 18.487C87.1217 18.6521 87.2655 18.7935 87.4325 18.9031C87.5996 19.0127 87.7866 19.0883 87.9828 19.1256C88.1791 19.1629 88.3807 19.1612 88.5763 19.1206C88.7719 19.0799 88.9576 19.0012 89.1227 18.8888C89.2879 18.7764 89.4293 18.6326 89.5389 18.4656C89.6484 18.2985 89.724 18.1115 89.7614 17.9153C89.7987 17.719 89.797 17.5174 89.7563 17.3218C89.7157 17.1262 89.6369 16.9405 89.5246 16.7753L89.5423 16.7776Z" fill="white"/>
<path d="M89.5425 16.7776L89.6336 16.7155C88.6371 15.2555 87.2533 14.1024 85.6376 13.3855C84.098 12.7128 82.4336 12.3731 80.7536 12.3887H80.5427V12.6107V12.3887C78.2092 12.3947 75.9687 13.3041 74.2911 14.9262C73.5441 15.642 72.9462 16.4986 72.5316 17.4465C72.1171 18.3945 71.8942 19.4151 71.8758 20.4495C71.8758 20.5095 71.8758 20.5938 71.8758 20.7004V20.8114L73.5053 20.7204L73.4942 20.4984L71.8647 20.5472V20.6582C71.8933 21.5833 72.176 22.4826 72.6816 23.2578C73.3826 24.2712 74.3218 25.0969 75.4167 25.6621C76.376 26.1754 77.3864 26.5869 78.4314 26.8897C79.5903 27.2383 81.0732 27.6601 82.443 28.1152C83.1267 28.3372 83.775 28.5769 84.3389 28.8078C84.7817 28.9809 85.2088 29.1918 85.6154 29.4383C86.1916 29.7774 86.6638 30.2681 86.9807 30.8569C87.1859 31.2861 87.2871 31.7576 87.2759 32.2333C87.2708 32.5898 87.2374 32.9454 87.176 33.2967L87.2848 33.3144L87.3958 33.3277L87.1738 33.2944C87.0731 33.9869 86.7405 34.6248 86.2303 35.1037C85.7204 35.5704 85.1141 35.919 84.4543 36.1249C83.4671 36.4575 82.4324 36.6277 81.3907 36.6289C78.4914 36.6289 75.7719 35.2969 74.1424 32.977C73.8828 32.6533 73.5096 32.4406 73.0987 32.3823C72.6879 32.324 72.2702 32.4245 71.9308 32.6632C71.5914 32.9019 71.3557 33.261 71.2716 33.6674C71.1876 34.0738 71.2615 34.4969 71.4784 34.8507C73.7628 38.1096 77.5124 39.8923 81.3951 39.8923C82.789 39.8937 84.1738 39.6687 85.4955 39.2263C86.6092 38.8655 87.63 38.2646 88.4858 37.4658C89.5025 36.4946 90.172 35.2161 90.391 33.8272L90.282 33.8139L90.391 33.8317C90.481 33.3088 90.528 32.7794 90.533 32.2488V32.2355C90.542 31.2597 90.324 30.2951 89.8955 29.4183C89.3187 28.3077 88.4518 27.3741 87.3869 26.7166C86.8129 26.36 86.2081 26.0554 85.5798 25.8064C84.5853 25.3957 83.462 25.0205 82.3653 24.6786C81.2686 24.3367 80.2052 24.0326 79.3638 23.7795C78.316 23.4687 77.1261 22.9892 76.318 22.4009C75.9648 22.1592 75.6593 21.8544 75.4167 21.5018C75.2313 21.2272 75.1288 20.9051 75.1214 20.5738V20.4651V20.454C75.1423 19.8507 75.2818 19.2575 75.5321 18.7082C75.7823 18.1589 76.1384 17.6643 76.58 17.2527C77.6577 16.2169 79.0967 15.642 80.5915 15.6499H80.7536C81.9744 15.634 83.1848 15.8761 84.3056 16.3603C85.3735 16.8286 86.2882 17.5879 86.9451 18.5514C87.0638 18.7329 87.2174 18.8889 87.3971 19.0103C87.5767 19.1318 87.7788 19.2162 87.9914 19.2586C88.204 19.3011 88.423 19.3007 88.6355 19.2576C88.848 19.2145 89.0497 19.1294 89.229 19.0074C89.4082 18.8854 89.5614 18.7289 89.6794 18.547C89.7975 18.3652 89.8781 18.1616 89.9166 17.9482C89.9551 17.7348 89.9507 17.5159 89.9036 17.3042C89.8566 17.0926 89.7678 16.8924 89.6424 16.7155L89.6091 16.6666H89.5514V16.7776L89.6424 16.7155L89.5514 16.7776V16.8886V16.7776L89.456 16.842C89.6504 17.1516 89.7172 17.5244 89.6423 17.8822C89.5675 18.24 89.3568 18.5548 89.0545 18.7604C88.7523 18.966 88.3821 19.0464 88.0218 18.9847C87.6615 18.9229 87.3392 18.7238 87.1227 18.4293C86.4432 17.4321 85.497 16.6459 84.3921 16.1605C83.2449 15.6638 82.0058 15.4149 80.7558 15.4301H80.576C79.0249 15.4235 77.5321 16.0206 76.4135 17.0951C75.4903 17.9675 74.9486 19.1689 74.9061 20.4384V20.4517V20.525V20.565C74.9155 20.9357 75.0302 21.296 75.2369 21.6039C75.4952 21.9795 75.8203 22.3046 76.1959 22.563C77.0395 23.1757 78.245 23.6596 79.3039 23.9749C80.1475 24.228 81.2131 24.5343 82.3031 24.874C83.3931 25.2136 84.5231 25.5866 85.4999 25.984C86.1173 26.2262 86.7117 26.5234 87.2759 26.872C88.3122 27.509 89.1557 28.4161 89.7157 29.496C90.128 30.3428 90.338 31.2738 90.328 32.2155V32.2288C90.325 32.7498 90.278 33.2696 90.189 33.7828L90.3 33.7962L90.189 33.7806C89.9764 35.1218 89.3289 36.3559 88.346 37.2927C87.5154 38.0705 86.523 38.655 85.44 39.0043C84.1411 39.4432 82.7795 39.6681 81.4085 39.6703C77.5945 39.6703 73.9137 37.9187 71.6738 34.7219C71.5613 34.5706 71.4803 34.3983 71.4356 34.2152C71.3909 34.032 71.3834 33.8418 71.4135 33.6557C71.4436 33.4696 71.5107 33.2914 71.6109 33.1317C71.711 32.972 71.8422 32.8341 71.9967 32.726C72.1511 32.6179 72.3257 32.5418 72.51 32.5024C72.6943 32.4629 72.8847 32.4608 73.0699 32.4962C73.255 32.5316 73.4312 32.6038 73.588 32.7085C73.7447 32.8132 73.8789 32.9483 73.9826 33.1057C75.6564 35.4967 78.447 36.8487 81.4129 36.8509C82.4787 36.8495 83.5373 36.6756 84.5475 36.3358C85.2349 36.1178 85.8661 35.7518 86.3968 35.2636C86.9387 34.7502 87.2935 34.0703 87.4047 33.3322L87.2937 33.3144L87.1849 33.2989L87.4069 33.33C87.4714 32.9671 87.5063 32.5996 87.5112 32.2311C87.5233 31.7206 87.4137 31.2145 87.1916 30.7548C86.8578 30.1309 86.3595 29.6103 85.7508 29.2496C85.3319 28.996 84.8922 28.7784 84.4365 28.5991C83.8727 28.3771 83.2133 28.1285 82.5273 27.9021C81.1509 27.4447 79.6658 27.0141 78.5069 26.6744C77.4783 26.3759 76.4836 25.9712 75.5388 25.4667C74.4725 24.9198 73.5575 24.1184 72.8748 23.1335C72.3915 22.3927 72.1212 21.5334 72.0933 20.6493H71.9823V20.7603L73.5008 20.7137V20.616V20.505L71.9823 20.5894V20.7004H72.0933C72.0933 20.6005 72.0933 20.5206 72.0933 20.4606C72.1115 19.4555 72.3284 18.4639 72.7315 17.543C73.1346 16.6221 73.716 15.7901 74.4421 15.0949C76.0789 13.5135 78.2645 12.6272 80.5404 12.6218V12.3998V12.6218H80.7491C82.4002 12.6051 84.0361 12.9388 85.5488 13.6008C87.1275 14.2964 88.4807 15.419 89.456 16.842L89.4893 16.8909H89.5492L89.5425 16.7776Z" fill="white"/>
</svg>
